<?xml version="1.0" encoding="utf-8"?>
<!-- Generator: Adobe Illustrator 24.0.1, SVG Export Plug-In . SVG Version: 6.00 Build 0)  -->
<svg version="1.1" id="Layer_1" xmlns="http://www.w3.org/2000/svg" xmlns:xlink="http://www.w3.org/1999/xlink" x="0px" y="0px"
	 viewBox="0 0 641.2 113.7" style="enable-background:new 0 0 641.2 113.7;" xml:space="preserve">
<style type="text/css">
	.st0{fill:#235E39;}
	.st1{fill:#FFD200;}
	.st2{fill:#C32032;}
	.st3{fill:#7B863A;}
	.st4{fill:#6D3B5D;}
	.st5{fill:#232C67;}
	.st6{fill:#37657F;}
	.st7{fill:#FFFFFF;}
</style>
<g>
	<g>
		<path class="st0" d="M43.5,80.6c-1.5-1.9-2.9-3.9-4.1-6c-0.1-0.1-0.2-0.2-0.2-0.3c-0.9-1.7-1.8-3.3-2.5-5.1
			c-0.2-0.5-0.4-1-0.6-1.6c-2.6-6.6-3.7-13.5-3.4-20.6c0.4-7.8,2.6-15,6.4-21.8c0-0.1,0.1-0.2,0.1-0.3c1.1-1.7,2.1-3.4,3.3-5
			c-0.6-1-1.1-2-1.8-3.2c-3.9-7-5.9-10.3-9.8-16.8c-3.9,6.6-5.9,10-9.8,17.1c-3.9,6.9-5.9,10.4-9.7,17.8c3.2-0.8,4.8-1.2,8-1.6
			c-0.8,2-1.2,3-2,5.1c-4.7,9.2-9.1,18.7-13.3,28.1c3.3-1.2,4.9-1.7,8.3-2.5C8,74.1,4,84.3,0,94.6c21.7-7.5,39.4-7.6,61.1-0.2
			c-4.5-2.1-8.6-4.9-12.5-8.4C46.7,84.4,45,82.6,43.5,80.6z"/>
		<path class="st1" d="M82.2,25.7c-7.2,0-13.9,3.2-18.5,8.7l-0.1,0.1c-3.5,4.3-5.5,9.7-5.5,15.3c0,0.2,0,0.5,0,0.7l14.6-12.7l10,8.7
			l10-8.7l13.7,11.9c0-3.2-0.6-6.2-1.9-9.1C100.7,31.5,92,25.7,82.2,25.7z"/>
		<path class="st2" d="M39,25.3c-3.8,6.7-6,14-6.4,21.8c-0.3,7.1,0.8,14,3.4,20.6c0.2,0.5,0.4,1.1,0.6,1.6l18.9-16.5
			c0-0.3-0.1-0.7-0.1-1c0-0.6-0.1-1.2-0.1-1.9c0-6.2,2.2-12.3,6.1-17.1l0.1-0.1c5.1-6.1,12.6-9.6,20.6-9.6
			c10.9,0,20.6,6.5,24.8,16.5c0,0,0,0,0,0c6.7-2.7,13.3-5.4,20-8.1c0.4-0.2,0.6-0.3,0.3-0.8c-0.8-1.9-1.8-3.8-2.7-5.6
			c-0.1-0.2-0.2-0.3-0.3-0.4c-9-14.5-22-22.5-39-24.1c-4.9-0.4-9.7,0-14.5,1.1c-11.3,2.7-20.6,8.5-27.8,17.6
			c-0.2,0.3-0.4,0.5-0.6,0.8c-1.2,1.6-2.3,3.3-3.3,5C39.1,25.1,39,25.2,39,25.3z"/>
		<path class="st3" d="M72.7,37.7L58.1,50.5c0,0.4,0,0.7,0.1,1c0.3,3.8,1.4,7.5,3.4,10.7c0.4,0.7,0.8,1.2,1.1,1.6l20-17.5L72.7,37.7
			z"/>
		<path class="st4" d="M59.2,63.8c-2-3.4-3.3-7.2-3.7-11L36.6,69.3c0.8,1.7,1.6,3.4,2.5,5.1c0.1,0.1,0.2,0.2,0.2,0.3
			c1.2,2.1,2.6,4.1,4.1,6l0.7-0.6l16.4-14.3c0,0-0.1-0.1-0.1-0.1C60.1,65.1,59.7,64.5,59.2,63.8z"/>
		<path class="st5" d="M126.8,67.8c-6.5-2.7-13.1-5.3-19.6-7.9c0,0,0,0,0,0c-0.7,1.8-1.7,3.6-2.8,5.2c-5,7.3-13.3,11.6-22.1,11.6
			c-8.5,0-16.6-4.1-21.7-11L44.2,80l-0.7,0.6c1.5,1.9,3.2,3.7,5.1,5.4c3.9,3.5,8.1,6.3,12.5,8.4c6,2.8,12.5,4.3,19.5,4.6
			c5.1,0.2,10.1-0.5,15-1.9c9.6-2.8,17.6-8.1,24.1-15.7c0.4-0.5,0.8-1,1.3-1.5c1.3-1.7,2.5-3.6,3.7-5.5c1-1.7,1.9-3.5,2.6-5.3
			c0.1-0.2,0.1-0.3,0.2-0.4l0.1-0.2l-0.1-0.2C127.3,68,127.1,68,126.8,67.8z"/>
		<path class="st6" d="M82.7,46.4l19.2,16.7l0.3,0.2c1-1.4,1.8-3,2.4-4.5c1.2-2.9,1.8-5.9,1.8-9c0-0.1,0-0.1,0-0.2L92.7,37.7
			L82.7,46.4z"/>
		<path class="st5" d="M82.7,46.4l-20,17.5c0,0,0,0.1,0.1,0.1c4.5,6.2,11.8,9.9,19.5,9.9c7.9,0,15.3-3.9,19.8-10.4
			c0,0,0.1-0.1,0.1-0.1l-0.3-0.2L82.7,46.4z"/>
	</g>
	<g>
		<path d="M111.4,93.9h-1.1c-0.1,0-0.1-0.1-0.1-0.1v-0.6c0-0.1,0.1-0.1,0.1-0.1h3c0.1,0,0.1,0.1,0.1,0.1v0.6c0,0.1-0.1,0.1-0.1,0.1
			h-1.1v3.9c0,0.1-0.1,0.1-0.1,0.1h-0.6c-0.1,0-0.1-0.1-0.1-0.1V93.9z"/>
		<path d="M115.3,93.1c0-0.1,0-0.1,0.1-0.1h0.1c0.1,0,0.1,0,0.1,0.1l1.5,3.3h0l1.5-3.3c0,0,0.1-0.1,0.1-0.1h0.1c0.1,0,0.1,0,0.1,0.1
			l0.8,4.7c0,0.1,0,0.2-0.1,0.2h-0.6c-0.1,0-0.1-0.1-0.1-0.1l-0.4-2.6h0l-1.2,2.7c0,0-0.1,0.1-0.1,0.1h-0.1c-0.1,0-0.1,0-0.1-0.1
			l-1.2-2.7h0l-0.4,2.6c0,0-0.1,0.1-0.1,0.1h-0.6c-0.1,0-0.1-0.1-0.1-0.2L115.3,93.1z"/>
	</g>
</g>
<g>
	<g>
		<g>
			<path class="st0" d="M236.4,51.1c0-0.5,0-1,0-1.5c0-27.3-22.2-49.5-49.5-49.5s-49.5,22.2-49.5,49.5c0,0.5,0,1,0,1.5l49.5,20.1
				L236.4,51.1z"/>
			<path class="st5" d="M186.9,74.2l-0.5-0.2l-48.8-19.8c2.3,25.2,23.5,45,49.3,45s47-19.7,49.3-45L186.9,74.2z"/>
		</g>
		<g>
			<path class="st7" d="M169.2,77.8c0-0.2,0.1-0.3,0.3-0.3h4.1c3.2,0,5.8,2.6,5.8,5.8c0,3.2-2.6,5.8-5.8,5.8h-4.1
				c-0.2,0-0.3-0.1-0.3-0.3V77.8z M173.4,86.7c1.9,0,3.2-1.5,3.2-3.4c0-1.9-1.4-3.4-3.2-3.4h-1.6v6.7H173.4z"/>
			<path class="st7" d="M182.4,77.7c0-0.2,0.1-0.3,0.3-0.3h0.4l6.6,6.4h0v-5.9c0-0.2,0.1-0.3,0.3-0.3h2c0.2,0,0.3,0.1,0.3,0.3v11.2
				c0,0.2-0.1,0.3-0.3,0.3h-0.3c0,0-0.2,0-0.2-0.1l-6.6-6.6h0v6.2c0,0.2-0.1,0.3-0.3,0.3h-2c-0.2,0-0.3-0.1-0.3-0.3L182.4,77.7z"/>
			<path class="st7" d="M196.3,77.8c0-0.2,0.1-0.3,0.3-0.3h5c2,0,3.6,1.6,3.6,3.6c0,1.5-1,2.8-2.5,3.3l2.3,4.2
				c0.1,0.2,0,0.5-0.3,0.5h-2.2c-0.1,0-0.2-0.1-0.3-0.1l-2.2-4.4h-1.2v4.2c0,0.2-0.1,0.3-0.3,0.3h-2c-0.2,0-0.3-0.1-0.3-0.3V77.8z
				 M201.4,82.5c0.7,0,1.3-0.6,1.3-1.3s-0.6-1.3-1.3-1.3h-2.5v2.6H201.4z"/>
		</g>
	</g>
	<path class="st7" d="M216.2,50.8c0,0,0-0.1,0-0.1l-7-8l3.8,0.5c0,0,0,0,0,0c0,0,0,0,0,0c0.1,0,0.1-0.1,0.1-0.1c0,0,0-0.1-0.1-0.1
		l-6.9-7.4l2.9,0.4c0,0,0,0,0,0c0,0,0,0,0,0c0.1,0,0.1-0.1,0.1-0.1c0,0,0-0.1-0.1-0.1l-6.5-7.2l2.5,0.4c0,0,0,0,0,0h0
		c0.1,0,0.1-0.1,0.1-0.1c0,0,0-0.1,0-0.1l-5.1-8.2c0,0-0.1-0.1-0.1-0.1c-0.1,0-0.1,0-0.1,0.1l-5.8,8.8c0,0,0,0.1,0,0.1
		c0,0,0.1,0.1,0.1,0l3-0.8l-6.3,7.2c0,0,0,0.1,0,0.1c0,0,0.1,0.1,0.1,0.1l3.5-0.6l-3.9,3.9l-7.9-7.9l5.4,1.7c0,0,0,0,0,0
		c0.1,0,0.1-0.1,0.1-0.1c0,0,0-0.1-0.1-0.1l-8.5-8.5l4.4,1.3c0,0,0,0,0,0c0,0,0,0,0,0c0.1,0,0.1-0.1,0.1-0.1c0,0,0-0.1,0-0.1
		l-7.2-11.6c0,0-0.1-0.1-0.1-0.1l0,0c0,0-0.1,0-0.1,0.1l-7.8,11.9c0,0,0,0.1,0,0.1c0,0,0.1,0.1,0.1,0.1l5.2-1.7l-8.6,8.6
		c0,0,0,0.1,0,0.1c0,0,0.1,0.1,0.1,0.1l5.5-1.7l-9.5,9.4c0,0,0,0.1,0,0.1c0,0,0.1,0.1,0.1,0.1l6-1.8l-9.5,9.6c0,0,0,0.1,0,0.1
		c0,0,0.1,0.1,0.1,0.1l5.6-1.7l-6.1,5.9c0,0,0,0.1,0,0.1c0,0,0,0.1,0.1,0.1l12.1,4.1c0,0,0,0,0.1,0c10.8-2.7,12.2-4,12.2-4.9
		c0-0.6-0.8-1.1-1.5-1.6c-0.6-0.4-1.2-0.7-1.2-1.1c0-1.4,6.1-2,11.4-2.6c6.3-0.7,10.2-1.2,10.2-2.3c0-1.4-3.5-1.6-7.3-1.8l-0.3,0
		l-0.4-0.5c7.7,0.3,12.3,1.2,12.3,2.4c0,2.1-7,3.4-12.2,4.4c-4.2,0.8-5.7,1.2-5.7,1.7c0,0.6,0.9,0.9,2,1.3c1.4,0.5,3.1,1.1,3.1,2.3
		c0,1.8-3.8,3.5-10.6,6.5c0,0-0.1,0.1-0.1,0.1c0,0.1,0,0.1,0.1,0.1l5.4,1.8c0.1,0,0.2,0,0.2,0c0.1,0,0.2,0,0.3-0.1L215,54
		c0,0,0.1,0,0.1-0.1c0,0,0-0.1,0-0.1l-3.5-3.9l4.6,0.9C216.2,50.8,216.2,50.8,216.2,50.8z"/>
</g>
<g>
	<path d="M271.8,96h-1.4v-1.3h5.9c4.5,0,7.4,2.7,7.4,7.4c0,4.7-3,7.4-7.4,7.4H273c-0.9,0-1.3-0.4-1.3-1.3V96z M273.7,108.2h2.5
		c3.6,0,6-2.1,6-6.1c0-3.9-2.4-6.1-6-6.1h-2.9v11.7C273.2,108,273.4,108.2,273.7,108.2z"/>
	<path d="M290.4,98.6c2.9,0,4.4,2.2,4.4,4.9c0,0.3,0,0.7,0,0.7h-8.1c0,2.7,1.9,4.2,4.1,4.2c1.9,0,3.2-1.3,3.2-1.3l0.7,1.1
		c0,0-1.5,1.5-3.9,1.5c-3.1,0-5.5-2.3-5.5-5.5C285.2,100.7,287.5,98.6,290.4,98.6z M293.3,103.1c-0.1-2.2-1.4-3.3-3-3.3
		c-1.7,0-3.3,1.1-3.6,3.3H293.3z"/>
	<path d="M297.4,100.6c0-0.3-0.2-0.5-0.5-0.5h-0.9v-1.2h1.4c0.9,0,1.3,0.4,1.3,1.1c0,0.4,0,0.7,0,0.7h0c0,0,0.8-2.1,3.6-2.1
		c2.8,0,4.6,2.3,4.6,5.5c0,3.3-2,5.5-4.7,5.5c-2.6,0-3.5-2-3.5-2h0c0,0,0,0.4,0,0.9v5h-1.4V100.6z M302.2,108.4
		c1.9,0,3.4-1.6,3.4-4.3c0-2.6-1.4-4.2-3.3-4.2c-1.8,0-3.4,1.3-3.4,4.3C298.8,106.3,300,108.4,302.2,108.4z"/>
	<path d="M315,102.9h0.6v-0.1c0-2.2-0.8-3-2.7-3c-0.5,0-2.1,0.1-2.1,0.9v0.7h-1.4v-1c0-1.5,2.5-1.8,3.4-1.8c3.3,0,4.1,1.8,4.1,4.1
		v5.1c0,0.3,0.2,0.5,0.5,0.5h0.9v1.2h-1.4c-0.9,0-1.3-0.4-1.3-1.3c0-0.5,0-0.8,0-0.8h0c0,0-0.9,2.3-3.5,2.3c-1.8,0-3.6-1-3.6-3.1
		C308.6,103.1,313.2,102.9,315,102.9z M312.4,108.5c2,0,3.2-2.1,3.2-3.9v-0.5H315c-1.7,0-5,0-5,2.4
		C310,107.5,310.8,108.5,312.4,108.5z"/>
	<path d="M320.5,100.6c0-0.3-0.2-0.5-0.5-0.5h-0.9v-1.2h1.5c0.9,0,1.3,0.4,1.3,1.2v0.7c0,0.4,0,0.8,0,0.8h0c0.5-1.6,1.7-2.8,3.3-2.8
		c0.3,0,0.6,0.1,0.6,0.1v1.4c0,0-0.3,0-0.5,0c-1.5,0-2.6,1.2-3.1,2.7c-0.2,0.7-0.3,1.4-0.3,2.1v4.5h-1.4V100.6z"/>
	<path d="M328,100.1h-1.4v-1.2h1.4V96h1.4v2.9h2.6v1.2h-2.6v5.4c0,2.5,1.6,2.8,2.4,2.8c0.3,0,0.5,0,0.5,0v1.3c0,0-0.3,0-0.6,0
		c-1.2,0-3.7-0.4-3.7-3.9V100.1z"/>
	<path d="M334.7,100.6c0-0.3-0.2-0.5-0.5-0.5h-0.9v-1.2h1.5c0.9,0,1.3,0.4,1.3,1.2v0.5c0,0.4,0,0.8,0,0.8h0c0.5-1.4,2.2-2.7,3.8-2.7
		c2,0,3,0.9,3.3,2.6h0c0.6-1.4,2.1-2.6,3.9-2.6c2.6,0,3.5,1.5,3.5,4.1v5c0,0.3,0.2,0.5,0.5,0.5h0.9v1.2h-1.5c-0.9,0-1.3-0.4-1.3-1.3
		v-5.1c0-1.7-0.4-3.1-2.3-3.1c-1.6,0-2.9,1.4-3.3,3c-0.1,0.5-0.2,1-0.2,1.5v5h-1.4v-6.4c0-1.6-0.2-3.1-2.2-3.1c-1.7,0-3,1.5-3.4,3.1
		c-0.1,0.4-0.2,0.9-0.2,1.4v5h-1.4V100.6z"/>
	<path d="M358.2,98.6c2.9,0,4.4,2.2,4.4,4.9c0,0.3,0,0.7,0,0.7h-8.1c0,2.7,1.9,4.2,4.1,4.2c1.9,0,3.2-1.3,3.2-1.3l0.7,1.1
		c0,0-1.5,1.5-3.9,1.5c-3.1,0-5.5-2.3-5.5-5.5C353,100.7,355.4,98.6,358.2,98.6z M361.2,103.1c-0.1-2.2-1.4-3.3-3-3.3
		c-1.7,0-3.3,1.1-3.6,3.3H361.2z"/>
	<path d="M365.3,100.6c0-0.3-0.2-0.5-0.5-0.5H364v-1.2h1.5c0.9,0,1.3,0.4,1.3,1.2v0.5c0,0.4,0,0.8,0,0.8h0c0.4-1,1.7-2.7,4.2-2.7
		c2.6,0,3.5,1.5,3.5,4.1v5c0,0.3,0.2,0.5,0.5,0.5h0.9v1.2h-1.5c-0.9,0-1.3-0.4-1.3-1.3v-5.1c0-1.7-0.3-3.1-2.3-3.1
		c-1.8,0-3.4,1.2-3.8,3c-0.1,0.4-0.2,0.9-0.2,1.4v5.1h-1.4V100.6z"/>
	<path d="M378,100.1h-1.4v-1.2h1.4V96h1.4v2.9h2.6v1.2h-2.6v5.4c0,2.5,1.6,2.8,2.4,2.8c0.3,0,0.5,0,0.5,0v1.3c0,0-0.3,0-0.6,0
		c-1.2,0-3.7-0.4-3.7-3.9V100.1z"/>
	<path d="M394.8,98.6c3.1,0,5.6,2.4,5.6,5.5c0,3.2-2.5,5.6-5.6,5.6c-3.1,0-5.6-2.4-5.6-5.6C389.2,101,391.7,98.6,394.8,98.6z
		 M394.8,108.4c2.2,0,4.1-1.8,4.1-4.3c0-2.4-1.8-4.2-4.1-4.2c-2.3,0-4.1,1.8-4.1,4.2C390.7,106.6,392.5,108.4,394.8,108.4z"/>
	<path d="M402.8,100.1h-1.3v-1.2h1.3v-0.4c0-3.5,2.5-3.9,3.6-3.9c0.4,0,0.7,0,0.7,0v1.3c0,0-0.2,0-0.5,0c-0.8,0-2.4,0.3-2.4,2.6v0.4
		h2.7v1.2h-2.7v9.4h-1.4V100.1z"/>
	<path d="M413.6,108.2h0.9c0.3,0,0.5-0.1,0.5-0.5v-13h1.3l7.5,10.5c0.5,0.7,1.2,1.9,1.2,1.9h0c0,0-0.1-1.2-0.1-1.9V96
		c0-0.9,0.4-1.3,1.3-1.3h1.6V96h-0.9c-0.3,0-0.5,0.1-0.5,0.5v13h-1.3l-7.5-10.5c-0.5-0.7-1.2-1.9-1.2-1.9h0c0,0,0.1,1.1,0.1,1.9v9.2
		c0,0.9-0.4,1.3-1.3,1.3h-1.6V108.2z"/>
	<path d="M435.7,102.9h0.6v-0.1c0-2.2-0.8-3-2.7-3c-0.5,0-2.1,0.1-2.1,0.9v0.7h-1.4v-1c0-1.5,2.5-1.8,3.4-1.8c3.3,0,4.1,1.8,4.1,4.1
		v5.1c0,0.3,0.2,0.5,0.5,0.5h0.9v1.2h-1.4c-0.9,0-1.3-0.4-1.3-1.3c0-0.5,0-0.8,0-0.8h0c0,0-0.9,2.3-3.5,2.3c-1.8,0-3.6-1-3.6-3.1
		C429.3,103.1,433.9,102.9,435.7,102.9z M433.1,108.5c2,0,3.2-2.1,3.2-3.9v-0.5h-0.6c-1.7,0-5,0-5,2.4
		C430.7,107.5,431.5,108.5,433.1,108.5z"/>
	<path d="M441.3,100.1h-1.4v-1.2h1.4V96h1.4v2.9h2.6v1.2h-2.6v5.4c0,2.5,1.6,2.8,2.4,2.8c0.3,0,0.5,0,0.5,0v1.3c0,0-0.3,0-0.6,0
		c-1.2,0-3.7-0.4-3.7-3.9V100.1z"/>
	<path d="M447.9,100.6c0-0.3-0.2-0.5-0.5-0.5h-0.9v-1.2h1.5c0.9,0,1.3,0.4,1.3,1.2v5.1c0,1.7,0.3,3.1,2.3,3.1c2.4,0,3.9-2.1,3.9-4.4
		v-5.1h1.4v8.9c0,0.3,0.2,0.5,0.5,0.5h0.9v1.2h-1.4c-0.9,0-1.3-0.4-1.3-1.2v-0.5c0-0.4,0-0.8,0-0.8h0c-0.4,1-1.8,2.7-4.1,2.7
		c-2.5,0-3.5-1.3-3.5-4.1V100.6z"/>
	<path d="M460.4,100.6c0-0.3-0.2-0.5-0.5-0.5h-0.9v-1.2h1.5c0.9,0,1.3,0.4,1.3,1.2v0.7c0,0.4,0,0.8,0,0.8h0c0.5-1.6,1.7-2.8,3.3-2.8
		c0.3,0,0.6,0.1,0.6,0.1v1.4c0,0-0.3,0-0.5,0c-1.5,0-2.6,1.2-3.1,2.7c-0.2,0.7-0.3,1.4-0.3,2.1v4.5h-1.4V100.6z"/>
	<path d="M473.3,102.9h0.6v-0.1c0-2.2-0.8-3-2.7-3c-0.5,0-2.1,0.1-2.1,0.9v0.7h-1.4v-1c0-1.5,2.5-1.8,3.4-1.8c3.3,0,4.1,1.8,4.1,4.1
		v5.1c0,0.3,0.2,0.5,0.5,0.5h0.9v1.2h-1.4c-0.9,0-1.3-0.4-1.3-1.3c0-0.5,0-0.8,0-0.8h0c0,0-0.9,2.3-3.5,2.3c-1.8,0-3.6-1-3.6-3.1
		C466.8,103.1,471.5,102.9,473.3,102.9z M470.7,108.5c2,0,3.2-2.1,3.2-3.9v-0.5h-0.6c-1.7,0-5,0-5,2.4
		C468.3,107.5,469.1,108.5,470.7,108.5z"/>
	<path d="M478.7,96.4c0-0.3-0.2-0.5-0.5-0.5h-0.9v-1.2h1.5c0.9,0,1.3,0.4,1.3,1.3v11.8c0,0.3,0.2,0.5,0.5,0.5h0.9v1.2H480
		c-0.9,0-1.3-0.4-1.3-1.3V96.4z"/>
	<path d="M489.6,96h-1.4v-1.3h6.3c2.5,0,4.2,1.6,4.2,4.2c0,2.3-1.4,3.6-2.9,3.9v0c0,0,0.3,0.2,0.5,0.6l2.1,4.2
		c0.2,0.4,0.5,0.5,1,0.5h0.3v1.3h-0.7c-1.2,0-1.6-0.1-2-1.1l-2.1-4.2c-0.4-0.8-0.7-0.9-1.5-0.9h-2.5v6.2h-1.5V96z M494.3,101.9
		c1.8,0,2.9-1.2,2.9-3c0-1.8-1.1-2.9-2.8-2.9h-3.3v5.9H494.3z"/>
	<path d="M505.9,98.6c2.9,0,4.4,2.2,4.4,4.9c0,0.3,0,0.7,0,0.7h-8.1c0,2.7,1.9,4.2,4.1,4.2c1.9,0,3.2-1.3,3.2-1.3l0.7,1.1
		c0,0-1.5,1.5-3.9,1.5c-3.1,0-5.5-2.3-5.5-5.5C500.7,100.7,503,98.6,505.9,98.6z M508.8,103.1c-0.1-2.2-1.4-3.3-3-3.3
		c-1.7,0-3.3,1.1-3.6,3.3H508.8z"/>
	<path d="M512.6,106.9c0,0,1.2,1.6,3.3,1.6c1.2,0,2.2-0.6,2.2-1.7c0-2.3-5.9-1.9-5.9-5.3c0-1.9,1.6-2.9,3.8-2.9
		c1.1,0,3.2,0.4,3.2,1.9v0.9h-1.3V101c0-0.8-1.1-1.1-1.8-1.1c-1.5,0-2.4,0.5-2.4,1.5c0,2.4,5.9,1.8,5.9,5.3c0,1.8-1.6,3-3.7,3
		c-2.8,0-4.1-1.8-4.1-1.8L512.6,106.9z"/>
	<path d="M526.6,98.6c3.1,0,5.6,2.4,5.6,5.5c0,3.2-2.5,5.6-5.6,5.6c-3.1,0-5.6-2.4-5.6-5.6C521,101,523.5,98.6,526.6,98.6z
		 M526.6,108.4c2.2,0,4.1-1.8,4.1-4.3c0-2.4-1.8-4.2-4.1-4.2c-2.3,0-4.1,1.8-4.1,4.2C522.5,106.6,524.3,108.4,526.6,108.4z"/>
	<path d="M534.6,100.6c0-0.3-0.2-0.5-0.5-0.5h-0.9v-1.2h1.5c0.9,0,1.3,0.4,1.3,1.2v5.1c0,1.7,0.3,3.1,2.3,3.1c2.4,0,3.9-2.1,3.9-4.4
		v-5.1h1.4v8.9c0,0.3,0.2,0.5,0.5,0.5h0.9v1.2h-1.4c-0.9,0-1.3-0.4-1.3-1.2v-0.5c0-0.4,0-0.8,0-0.8h0c-0.4,1-1.8,2.7-4.1,2.7
		c-2.5,0-3.5-1.3-3.5-4.1V100.6z"/>
	<path d="M547.1,100.6c0-0.3-0.2-0.5-0.5-0.5h-0.9v-1.2h1.5c0.9,0,1.3,0.4,1.3,1.2v0.7c0,0.4,0,0.8,0,0.8h0c0.5-1.6,1.7-2.8,3.3-2.8
		c0.3,0,0.6,0.1,0.6,0.1v1.4c0,0-0.3,0-0.5,0c-1.5,0-2.6,1.2-3.1,2.7c-0.2,0.7-0.3,1.4-0.3,2.1v4.5h-1.4V100.6z"/>
	<path d="M559,98.6c1.2,0,3.8,0.5,3.8,2.2v0.9h-1.3v-0.6c0-0.9-1.5-1.3-2.4-1.3c-2.3,0-4.1,1.7-4.1,4.3c0,2.6,1.9,4.2,4.1,4.2
		c2.2,0,3.4-1.5,3.4-1.5l0.7,1.1c0,0-1.4,1.7-4.1,1.7c-3.1,0-5.5-2.2-5.5-5.5C553.5,101,555.9,98.6,559,98.6z"/>
	<path d="M569.5,98.6c2.9,0,4.4,2.2,4.4,4.9c0,0.3,0,0.7,0,0.7h-8.1c0,2.7,1.9,4.2,4.1,4.2c1.9,0,3.2-1.3,3.2-1.3l0.7,1.1
		c0,0-1.5,1.5-3.9,1.5c-3.1,0-5.5-2.3-5.5-5.5C564.3,100.7,566.7,98.6,569.5,98.6z M572.5,103.1c-0.1-2.2-1.4-3.3-3-3.3
		c-1.7,0-3.3,1.1-3.6,3.3H572.5z"/>
	<path d="M576.2,106.9c0,0,1.2,1.6,3.3,1.6c1.2,0,2.2-0.6,2.2-1.7c0-2.3-5.9-1.9-5.9-5.3c0-1.9,1.6-2.9,3.8-2.9
		c1.1,0,3.2,0.4,3.2,1.9v0.9h-1.3V101c0-0.8-1.1-1.1-1.8-1.1c-1.5,0-2.4,0.5-2.4,1.5c0,2.4,5.9,1.8,5.9,5.3c0,1.8-1.6,3-3.7,3
		c-2.8,0-4.1-1.8-4.1-1.8L576.2,106.9z"/>
</g>
<g>
	<path d="M284.1,6c1.9,0,3.9,0.7,5.4,2c0.3,0.3,0.7,0.3,1,0l3.1-3.2c0.3-0.3,0.3-0.8,0-1.1c-2.7-2.5-5.6-3.7-9.6-3.7
		c-8,0-14.4,6.4-14.4,14.4c0,8,6.4,14.3,14.4,14.3c3.5,0,7-1.2,9.7-3.9c0.3-0.3,0.3-0.8,0-1.1l-3.1-3.3c-0.2-0.3-0.8-0.3-1,0
		c-1.4,1.2-3.5,1.9-5.3,1.9c-4.5,0-7.8-3.7-7.8-8.1C276.3,9.7,279.6,6,284.1,6"/>
	<path d="M319.2,0c-8,0-14.3,6.4-14.3,14.4c0,8,6.3,14.3,14.3,14.3c8,0,14.3-6.3,14.3-14.3C333.6,6.4,327.2,0,319.2,0 M319.2,22.3
		c-4.3,0-7.9-3.6-7.9-7.9c0-4.4,3.6-8,7.9-8c4.4,0,8,3.6,8,8C327.2,18.7,323.6,22.3,319.2,22.3"/>
	<path d="M362.7,22.4h-9.6V1.2c0-0.4-0.4-0.8-0.8-0.8h-4.7c-0.4,0-0.8,0.3-0.8,0.8v26.3c0,0.4,0.3,0.8,0.8,0.8h15.1
		c0.4,0,0.8-0.4,0.8-0.8v-4.3C363.4,22.7,363.1,22.4,362.7,22.4"/>
	<path d="M388.6,0c-8,0-14.3,6.4-14.3,14.4c0,8,6.3,14.3,14.3,14.3c8,0,14.3-6.3,14.3-14.3C403,6.4,396.6,0,388.6,0 M388.6,22.3
		c-4.3,0-7.9-3.6-7.9-7.9c0-4.4,3.6-8,7.9-8c4.4,0,8,3.6,8,8C396.6,18.7,393,22.3,388.6,22.3"/>
	<path d="M432.5,17c3.5-1.4,5.9-4.3,5.9-8c0-4.7-3.9-8.6-8.7-8.6h-11.9c-0.4,0-0.8,0.3-0.8,0.8v26.3c0,0.4,0.3,0.8,0.8,0.8h4.7
		c0.4,0,0.8-0.4,0.8-0.8V17.3h2.7l5.7,10.5c0.1,0.2,0.3,0.4,0.6,0.4h5.3c0.7,0,1-0.6,0.7-1.2L432.5,17z M429.2,12.3h-5.9V6.1h5.9
		c1.6,0,3,1.4,3,3C432.2,10.8,430.8,12.3,429.2,12.3"/>
	<path d="M502.5,0.4h-9.7c-0.4,0-0.7,0.3-0.7,0.8v26.3c0,0.4,0.3,0.8,0.7,0.8h9.7c7.7,0,14-6.2,14-14C516.5,6.6,510.2,0.4,502.5,0.4
		 M502.1,22.3h-3.8V6.2h3.8c4.5,0,7.8,3.5,7.8,8C509.9,18.8,506.6,22.3,502.1,22.3"/>
	<path d="M543.2,0c-8,0-14.3,6.4-14.3,14.4c0,8,6.3,14.3,14.3,14.3c7.9,0,14.3-6.3,14.3-14.3C557.5,6.4,551.1,0,543.2,0 M543.2,22.3
		c-4.3,0-7.9-3.6-7.9-7.9c0-4.4,3.6-8,7.9-8c4.4,0,7.9,3.6,7.9,8C551.1,18.7,547.6,22.3,543.2,22.3"/>
	<path d="M465.8,0.4c-0.1-0.2-0.4-0.4-0.7-0.4h-0.4c-0.3,0-0.6,0.2-0.7,0.4l-12.4,26.8c-0.2,0.5,0.1,1,0.7,1h4.4
		c0.8,0,1.2-0.2,1.4-1l1.4-3.2h10.8l1.4,3.1c0.4,0.9,0.6,1,1.4,1h4.4c0.6,0,0.9-0.5,0.7-1L465.8,0.4z M461.3,19.4l3.6-8.3l3.7,8.3
		H461.3z"/>
</g>
<g>
	<path d="M269.5,67.4h2.3V53.6h-2.3v-2.7h8.3c1.5,0,2.8,0.1,4,0.5c3.7,1.1,6.2,4.4,6.2,9.1c0,4.5-2.3,7.8-5.9,9
		c-1.3,0.5-2.6,0.6-4.2,0.6h-8.3V67.4z M277.7,67.3c1.2,0,2.2-0.1,3.1-0.5c2.2-0.9,3.6-3.1,3.6-6.3c0-3.2-1.5-5.5-3.7-6.3
		c-1-0.4-1.9-0.4-3-0.4h-2.3v13.5H277.7z"/>
	<path d="M290.2,67.5h2v-8.6h-2.1v-2.6h5.6v11.2h2v2.6h-7.4V67.5z M292.2,50.9h3.5V54h-3.5V50.9z"/>
	<path d="M298.4,56.3h6.6v2.6h-1.5l2.4,6.8c0.3,0.7,0.4,1.5,0.4,1.5h0.1c0,0,0.1-0.8,0.3-1.5l2.4-6.8h-1.6v-2.6h6.6v2.6h-1.6
		l-4.2,11.2h-3.9l-4.2-11.2h-1.7V56.3z"/>
	<path d="M315.3,67.5h2v-8.6h-2.1v-2.6h5.6v11.2h2v2.6h-7.4V67.5z M317.3,50.9h3.5V54h-3.5V50.9z"/>
	<path d="M324.2,65.5h2.9v0.8c0,0.9,1.3,1.4,2.7,1.4c1.4,0,2.3-0.5,2.3-1.4c0-1.2-1.3-1.5-3.1-2.1c-2-0.7-4.3-1.6-4.3-4.3
		c0-2.9,2.9-3.9,5.4-3.9c2,0,5,0.8,5,2.9v1.8h-2.9v-0.8c0-0.7-0.8-1.1-2-1.1c-1.1,0-2,0.4-2,1.2c0,1.1,1.3,1.6,2.9,2.1
		c2.1,0.7,4.6,1.5,4.6,4.2c0,2.8-2.6,4.2-5.8,4.2c-2.5,0-5.6-1.1-5.6-3.3V65.5z"/>
	<path d="M337.6,67.5h2v-8.6h-2.1v-2.6h5.6v11.2h2v2.6h-7.4V67.5z M339.5,50.9h3.5V54h-3.5V50.9z"/>
	<path d="M354,56c4.2,0,7.6,3,7.6,7.2c0,4.2-3.4,7.2-7.6,7.2c-4.2,0-7.6-3-7.6-7.2C346.4,59,349.8,56,354,56z M354,67.5
		c2.2,0,4.1-1.7,4.1-4.3c0-2.5-1.9-4.3-4.1-4.3c-2.2,0-4.1,1.8-4.1,4.3C349.9,65.8,351.8,67.5,354,67.5z"/>
	<path d="M363.4,67.5h2v-8c0-0.4-0.2-0.6-0.6-0.6h-1.5v-2.6h3.6c1.2,0,1.8,0.6,1.8,1.5v0.6c0,0.3-0.1,0.6-0.1,0.6h0.1
		c0.2-0.4,1.6-3.1,5.1-3.1c2.9,0,4.6,1.6,4.6,5.2v6.3h2v2.6H375v-8.2c0-1.7-0.5-2.8-2.2-2.8c-2.5,0-3.9,2.4-3.9,4.8v3.6h2v2.6h-7.4
		V67.5z"/>
	<path d="M395.7,56c4.2,0,7.6,3,7.6,7.2c0,4.2-3.4,7.2-7.6,7.2c-4.2,0-7.6-3-7.6-7.2C388.1,59,391.5,56,395.7,56z M395.7,67.5
		c2.2,0,4.1-1.7,4.1-4.3c0-2.5-1.9-4.3-4.1-4.3c-2.2,0-4.1,1.8-4.1,4.3C391.6,65.8,393.5,67.5,395.7,67.5z"/>
	<path d="M405.2,67.5h2v-8.6h-2.1v-2.6h2.1v-0.6c0-4.5,3.6-5,5.4-5c0.8,0,1.4,0.1,1.4,0.1v2.8c0,0-0.4-0.1-1.1-0.1
		c-0.8,0-2.3,0.2-2.3,2.2v0.7h3.1v2.6h-3.1v8.6h2.3v2.6h-7.7V67.5z"/>
	<path d="M421.1,50.9h7.5v2.7h-2.2l2.5,10.9c0.2,0.8,0.2,1.7,0.2,1.7h0.1c0,0,0.1-0.9,0.3-1.7l3.6-13.6h2.8l3.6,13.6
		c0.2,0.8,0.3,1.7,0.3,1.7h0.1c0,0,0.1-0.9,0.2-1.7l2.5-10.9h-2.2v-2.7h7.5v2.7H446L442,70.1h-4L434.8,58c-0.2-0.8-0.3-1.8-0.3-1.8
		h-0.1c0,0-0.1,1-0.3,1.8l-3.2,12.1h-4l-4.1-16.5h-1.8V50.9z"/>
	<path d="M456.4,61.6h0.9v-0.5c0-1.8-1.1-2.4-2.5-2.4c-2.1,0-3.9,1.3-3.9,1.3l-1.3-2.4c0,0,2.1-1.7,5.5-1.7c3.7,0,5.7,1.9,5.7,5.4
		v5.5c0,0.4,0.2,0.6,0.6,0.6h1.2v2.6h-3.2c-1.3,0-1.8-0.7-1.8-1.5v-0.2c0-0.4,0.1-0.7,0.1-0.7h-0.1c0,0-1.2,2.6-4.3,2.6
		c-2.3,0-4.6-1.4-4.6-4.2C448.7,62,454.2,61.6,456.4,61.6z M454.1,67.9c1.9,0,3.2-2,3.2-3.7v-0.5h-0.6c-1.3,0-4.6,0.2-4.6,2.3
		C452.1,67,452.8,67.9,454.1,67.9z"/>
	<path d="M465.5,58.9h-2.1v-2.6h2.2v-3.8h3.3v3.8h3.1v2.6H469v5.8c0,2.3,1.8,2.7,2.8,2.7c0.4,0,0.6,0,0.6,0v2.8c0,0-0.4,0.1-1.1,0.1
		c-1.9,0-5.8-0.6-5.8-5.2V58.9z"/>
	<path d="M480.8,56c4,0,6.1,2.9,6.1,6.5c0,0.4-0.1,1.2-0.1,1.2h-9.5c0.2,2.5,2.1,3.8,4.1,3.8c2.2,0,4-1.5,4-1.5l1.3,2.4
		c0,0-2.1,1.9-5.6,1.9c-4.6,0-7.4-3.3-7.4-7.2C473.8,59,476.7,56,480.8,56z M483.4,61.7c-0.1-1.9-1.2-3-2.7-3c-1.8,0-3,1.2-3.3,3
		H483.4z"/>
	<path d="M488.9,67.5h2v-8c0-0.4-0.2-0.6-0.6-0.6h-1.5v-2.6h3.6c1.2,0,1.8,0.5,1.8,1.7v0.8c0,0.5-0.1,0.9-0.1,0.9h0.1
		c0.6-2,2.3-3.5,4.4-3.5c0.3,0,0.6,0.1,0.6,0.1v3.4c0,0-0.4-0.1-0.8-0.1c-2.8,0-4,2.4-4,5v3h2v2.6h-7.4V67.5z"/>
	<path d="M507.3,67.4h2.3V53.6h-2.3v-2.7h8.4c1.4,0,2.6,0.1,3.6,0.4c2.1,0.7,3.5,2.4,3.5,5.1c0,2.7-1.4,4.6-3.6,5.3v0.1
		c0,0,0.6,0.3,0.9,1l2.2,4c0.3,0.5,0.6,0.6,1.3,0.6h0.6v2.6h-2.2c-1.6,0-2.1-0.3-2.7-1.4l-2.7-4.9c-0.4-0.7-0.8-1-1.9-1h-1.8v4.7
		h2.2v2.6h-8V67.4z M516.3,59.9c1.9,0,3.1-1.1,3.1-3.2c0-1.2-0.5-2.2-1.5-2.6c-0.5-0.2-1.3-0.4-2.2-0.4h-2.6v6.2H516.3z"/>
	<path d="M532.9,56c4,0,6.1,2.9,6.1,6.5c0,0.4-0.1,1.2-0.1,1.2h-9.5c0.2,2.5,2.1,3.8,4.1,3.8c2.2,0,4-1.5,4-1.5l1.3,2.4
		c0,0-2.1,1.9-5.6,1.9c-4.6,0-7.4-3.3-7.4-7.2C526,59,528.8,56,532.9,56z M535.5,61.7c-0.1-1.9-1.2-3-2.7-3c-1.8,0-3,1.2-3.3,3
		H535.5z"/>
	<path d="M540.8,65.5h2.9v0.8c0,0.9,1.3,1.4,2.7,1.4c1.4,0,2.3-0.5,2.3-1.4c0-1.2-1.3-1.5-3.1-2.1c-2-0.7-4.3-1.6-4.3-4.3
		c0-2.9,2.9-3.9,5.4-3.9c2,0,5,0.8,5,2.9v1.8h-2.9v-0.8c0-0.7-0.8-1.1-2-1.1c-1.1,0-2,0.4-2,1.2c0,1.1,1.3,1.6,2.9,2.1
		c2.1,0.7,4.6,1.5,4.6,4.2c0,2.8-2.6,4.2-5.8,4.2c-2.5,0-5.6-1.1-5.6-3.3V65.5z"/>
	<path d="M561.3,56c4.2,0,7.6,3,7.6,7.2c0,4.2-3.4,7.2-7.6,7.2c-4.2,0-7.6-3-7.6-7.2C553.8,59,557.1,56,561.3,56z M561.4,67.5
		c2.2,0,4.1-1.7,4.1-4.3c0-2.5-1.9-4.3-4.1-4.3c-2.2,0-4.1,1.8-4.1,4.3C557.2,65.8,559.1,67.5,561.4,67.5z"/>
	<path d="M572.3,58.9h-2.1v-2.6h5.6v8.3c0,1.6,0.4,2.8,2.2,2.8c2.4,0,3.8-2.4,3.8-4.9v-3.6h-2.1v-2.6h5.5V67c0,0.4,0.2,0.6,0.6,0.6
		h1.3v2.5h-3.4c-1.2,0-1.8-0.6-1.8-1.5V68c0-0.4,0-0.6,0-0.6h-0.1c-0.2,0.5-1.6,3-5,3c-2.8,0-4.5-1.5-4.5-5.2V58.9z"/>
	<path d="M588.8,67.5h2v-8c0-0.4-0.2-0.6-0.6-0.6h-1.5v-2.6h3.6c1.2,0,1.8,0.5,1.8,1.7v0.8c0,0.5-0.1,0.9-0.1,0.9h0.1
		c0.6-2,2.3-3.5,4.4-3.5c0.3,0,0.6,0.1,0.6,0.1v3.4c0,0-0.4-0.1-0.8-0.1c-2.8,0-4,2.4-4,5v3h2v2.6h-7.4V67.5z"/>
	<path d="M607.6,56c2.3,0,5.6,0.9,5.6,3.3v1.9h-3v-0.9c0-0.9-1.4-1.3-2.6-1.3c-2.5,0-4,1.7-4,4.2c0,2.8,2,4.4,4.3,4.4
		c1.9,0,3.5-1.1,4.3-1.7l1.2,2.4c-0.9,0.9-3.1,2.1-5.7,2.1c-4,0-7.6-2.7-7.6-7.2C600.2,59.1,603.4,56,607.6,56z"/>
	<path d="M622,56c4,0,6.1,2.9,6.1,6.5c0,0.4-0.1,1.2-0.1,1.2h-9.5c0.2,2.5,2.1,3.8,4.1,3.8c2.2,0,4-1.5,4-1.5l1.3,2.4
		c0,0-2.1,1.9-5.6,1.9c-4.6,0-7.4-3.3-7.4-7.2C615.1,59,617.9,56,622,56z M624.6,61.7c-0.1-1.9-1.2-3-2.7-3c-1.8,0-3,1.2-3.3,3
		H624.6z"/>
	<path d="M629.9,65.5h2.9v0.8c0,0.9,1.3,1.4,2.7,1.4c1.4,0,2.3-0.5,2.3-1.4c0-1.2-1.3-1.5-3.1-2.1c-2-0.7-4.3-1.6-4.3-4.3
		c0-2.9,2.9-3.9,5.4-3.9c2,0,5,0.8,5,2.9v1.8h-2.9v-0.8c0-0.7-0.8-1.1-2-1.1c-1.1,0-2,0.4-2,1.2c0,1.1,1.3,1.6,2.9,2.1
		c2.1,0.7,4.6,1.5,4.6,4.2c0,2.8-2.6,4.2-5.8,4.2c-2.5,0-5.6-1.1-5.6-3.3V65.5z"/>
</g>
<rect x="252.3" y="0.1" width="1.3" height="109.3"/>
</svg>
